<svg width="430" height="430" viewBox="0 0 430 430" fill="none" xmlns="http://www.w3.org/2000/svg">
<path d="M430 188.092C430 176.81 420.825 167.64 409.544 167.64H377.02C373.617 155.936 368.945 144.641 363.063 133.925L386.048 110.931C389.847 107.127 392.04 101.857 392.04 96.4626C392.04 90.9898 389.916 85.8574 386.048 81.9943L348.001 43.9428C340.583 36.5155 326.51 36.5017 319.074 43.9428L296.079 66.9374C285.377 61.0508 274.069 56.3783 262.36 52.9705V20.456C262.36 9.17487 253.185 0 241.913 0H188.092C176.81 0 167.64 9.17487 167.64 20.456V52.9751C155.931 56.3829 144.623 61.0554 133.916 66.942L110.922 43.9474C103.195 36.2258 89.7251 36.2258 82.0035 43.9474L43.9428 81.9989C35.9682 89.9735 35.9682 102.947 43.9428 110.922L66.9328 133.916C61.0508 144.632 56.3783 155.936 52.9705 167.64H20.456C9.17487 167.64 0 176.815 0 188.092V241.904C0 253.185 9.17487 262.355 20.456 262.355H52.9751C56.3783 274.059 61.0554 285.364 66.9374 296.075L43.952 319.065C40.1487 322.868 37.9596 328.143 37.9596 333.533C37.9596 339.001 40.0843 344.143 43.9474 348.001L81.9989 386.048C89.4216 393.475 103.494 393.494 110.926 386.048L133.921 363.053C144.627 368.935 155.931 373.617 167.645 377.02V409.539C167.645 420.821 176.82 429.995 188.096 429.995H241.913C253.194 429.995 262.36 420.821 262.36 409.539V377.02C274.069 373.617 285.377 368.945 296.079 363.053L319.074 386.048C326.805 393.774 340.266 393.774 347.992 386.048L386.048 348.001C394.023 340.027 394.023 327.053 386.048 319.078L363.063 296.079C368.945 285.368 373.617 274.064 377.02 262.36H409.539C420.821 262.36 429.995 253.185 429.995 241.913V188.092H430ZM289.489 215C289.489 256.078 256.073 289.489 215 289.489C173.927 289.489 140.511 256.073 140.511 215C140.511 173.927 173.927 140.511 215 140.511C256.078 140.511 289.489 173.927 289.489 215Z" fill="#ECAE3B"/>
</svg>
