<svg width="378" height="378" viewBox="0 0 378 378" fill="none" xmlns="http://www.w3.org/2000/svg">
<path d="M330.75 173.25V267.75C330.75 302.543 302.543 330.75 267.75 330.75H110.25C75.456 330.75 47.25 302.543 47.25 267.75V110.25C47.25 75.456 75.456 47.25 110.25 47.25H204.75" stroke="white" stroke-width="20" stroke-linecap="round"/>
<path d="M282.283 55.5657C287.606 50.2412 294.829 47.25 302.357 47.25C309.888 47.25 317.111 50.2412 322.434 55.5657C327.759 60.8903 330.75 68.1118 330.75 75.6417C330.75 83.1718 327.759 90.3933 322.434 95.7178L195.286 222.866L141.75 236.25L155.134 182.714L282.283 55.5657Z" stroke="white" stroke-width="20" stroke-linecap="round" stroke-linejoin="round"/>
<path d="M252 94.5L283.5 126" stroke="white" stroke-width="20" stroke-linecap="round" stroke-linejoin="round"/>
</svg>
