<svg width="450" height="450" viewBox="0 0 450 450" fill="none" xmlns="http://www.w3.org/2000/svg">
<g clip-path="url(#clip0_72_11)">
<path d="M281.247 243.746C270.879 243.746 262.498 252.147 262.498 262.495V337.496C262.498 347.827 254.097 356.245 243.746 356.245H187.497V74.9981C187.497 58.9857 177.297 44.6796 161.961 39.3547L156.409 37.4973H243.746C254.097 37.4973 262.498 45.9155 262.498 56.2494V112.499C262.498 122.846 270.879 131.247 281.247 131.247C291.615 131.247 299.996 122.846 299.996 112.499V56.2494C299.996 25.2374 274.758 0 243.746 0H42.1871C41.473 0 40.8756 0.319287 40.1821 0.411983C39.2791 0.336453 38.4174 0 37.5008 0C16.8192 0 0 16.8158 0 37.4973V374.994C0 391.006 10.2 405.312 25.5361 410.637L138.375 448.251C142.199 449.432 146.003 449.995 150 449.995C170.681 449.995 187.497 433.176 187.497 412.495V393.746H243.746C274.758 393.746 299.996 368.508 299.996 337.496V262.495C299.996 252.147 291.615 243.746 281.247 243.746Z" fill="#36723E"/>
<path d="M444.502 174.241L369.501 99.243C364.141 93.8803 356.077 92.2667 349.066 95.1712C342.073 98.0791 337.496 104.922 337.496 112.499V168.748H262.498C252.147 168.748 243.746 177.146 243.746 187.497C243.746 197.848 252.147 206.245 262.498 206.245H337.496V262.495C337.496 270.072 342.073 276.914 349.066 279.822C356.077 282.727 364.141 281.113 369.501 275.754L444.502 200.752C451.832 193.422 451.832 181.571 444.502 174.241Z" fill="#36723E"/>
</g>
<defs>
<clipPath id="clip0_72_11">
<rect width="450" height="450" fill="white"/>
</clipPath>
</defs>
</svg>
