<svg width="325" height="385" viewBox="0 0 325 385" fill="none" xmlns="http://www.w3.org/2000/svg">
 <object type="image/svg+xml" data="/logo-forestando.svg">logo-forestando</object>

<g filter="url(#filter0_bd_16_12)">
<path d="M219 190C211.5 199.5 202.5 206 202.5 206C202.5 206 193.5 213 182.5 218C195.5 243.5 245 343.5 245 343.5C245 343.5 249.938 356.663 234 356.663C148.442 356.663 82.7028 356.797 42 356.663C30.5764 356.625 24 356.601 24 356.601V335.101V20.6013C24 20.6013 45.5884 20.163 83.5 20.1629C148 18.6629 186.5 27.4592 208 49.1629C235 73.9592 240.5 97 239 131.5C237.735 155.287 230.5 175.5 219 190Z" fill="url(#paint0_linear_16_12)" shape-rendering="crispEdges"/>
<path d="M202.207 205.595L202.2 205.6L202.193 205.605L202.193 205.605L202.192 205.606L202.187 205.61L202.168 205.624L202.092 205.683C202.025 205.734 201.924 205.811 201.791 205.911C201.526 206.11 201.134 206.401 200.629 206.767C199.619 207.497 198.156 208.524 196.351 209.707C192.739 212.073 187.762 215.059 182.293 217.545L181.817 217.761L182.055 218.227C188.553 230.974 204.177 262.346 218.177 290.535C225.177 304.629 231.771 317.925 236.615 327.699C239.036 332.585 241.021 336.591 242.4 339.375L243.993 342.593L244.41 343.434L244.516 343.649L244.54 343.697L244.543 343.705C244.55 343.727 244.562 343.761 244.577 343.807C244.608 343.897 244.651 344.032 244.701 344.204C244.8 344.55 244.927 345.046 245.03 345.642C245.237 346.839 245.348 348.412 244.989 349.969C244.633 351.515 243.816 353.044 242.157 354.195C240.489 355.353 237.92 356.163 234 356.163C202.571 356.163 173.817 356.181 147.995 356.197C103.523 356.225 67.7522 356.247 42.0016 356.163C36.2899 356.144 31.7899 356.129 28.7179 356.118L25.2078 356.106L24.5 356.103V335.101V21.0918C24.6404 21.0891 24.8107 21.086 25.0107 21.0824C25.6747 21.0704 26.6657 21.0533 27.9734 21.0328C30.5889 20.9917 34.4714 20.9369 39.5386 20.8821C49.6729 20.7725 64.5461 20.6629 83.5 20.6629V20.663L83.5116 20.6628C148.007 19.1628 186.306 27.9742 207.645 49.5148L207.653 49.5232L207.662 49.5311C221.114 61.8858 229.185 73.778 233.715 86.8562C238.247 99.9417 239.249 114.254 238.501 131.475C237.239 155.179 230.032 175.286 218.608 189.689L218.608 189.69C214.882 194.409 210.78 198.388 207.607 201.188C206.021 202.587 204.669 203.69 203.714 204.443C203.236 204.82 202.859 205.109 202.601 205.303C202.472 205.4 202.373 205.473 202.306 205.522L202.231 205.577L202.213 205.591L202.208 205.594L202.207 205.595L202.207 205.595Z" stroke="url(#paint1_linear_16_12)" shape-rendering="crispEdges"/>
</g>
<g filter="url(#filter1_bd_16_12)">
<path d="M274 190C266.5 199.5 257.5 206 257.5 206C257.5 206 248.5 213 237.5 218C250.5 243.5 300 343.5 300 343.5C300 343.5 304.938 356.663 289 356.663C203.442 356.663 137.703 356.797 97 356.663C85.5764 356.625 79 356.601 79 356.601V335.101V20.6013C79 20.6013 100.588 20.163 138.5 20.1629C203 18.6629 241.5 27.4592 263 49.1629C290 73.9592 295.5 97 294 131.5C292.735 155.287 285.5 175.5 274 190Z" fill="url(#paint2_linear_16_12)" shape-rendering="crispEdges"/>
<path d="M257.207 205.595L257.2 205.6L257.193 205.605L257.193 205.605L257.192 205.606L257.187 205.61L257.168 205.624L257.092 205.683C257.025 205.734 256.924 205.811 256.791 205.911C256.526 206.11 256.134 206.401 255.629 206.767C254.619 207.497 253.156 208.524 251.351 209.707C247.739 212.073 242.762 215.059 237.293 217.545L236.817 217.761L237.055 218.227C243.553 230.974 259.177 262.346 273.177 290.535C280.177 304.629 286.771 317.925 291.615 327.699C294.036 332.585 296.021 336.591 297.4 339.375L298.993 342.593L299.41 343.434L299.516 343.649L299.54 343.697L299.543 343.705C299.55 343.727 299.562 343.761 299.577 343.807C299.608 343.897 299.651 344.032 299.701 344.204C299.8 344.55 299.927 345.046 300.03 345.642C300.237 346.839 300.348 348.412 299.989 349.969C299.633 351.515 298.816 353.044 297.157 354.195C295.489 355.353 292.92 356.163 289 356.163C257.571 356.163 228.817 356.181 202.995 356.197C158.523 356.225 122.752 356.247 97.0016 356.163C91.2899 356.144 86.7899 356.129 83.7179 356.118L80.2078 356.106L79.5 356.103V335.101V21.0918C79.6404 21.0891 79.8107 21.086 80.0107 21.0824C80.6747 21.0704 81.6657 21.0533 82.9734 21.0328C85.5889 20.9917 89.4714 20.9369 94.5386 20.8821C104.673 20.7725 119.546 20.6629 138.5 20.6629V20.663L138.512 20.6628C203.007 19.1628 241.306 27.9742 262.645 49.5148L262.653 49.5232L262.662 49.5311C276.114 61.8858 284.185 73.778 288.715 86.8562C293.247 99.9417 294.249 114.254 293.501 131.475C292.239 155.179 285.032 175.286 273.608 189.689L273.608 189.69C269.882 194.409 265.78 198.388 262.607 201.188C261.021 202.587 259.669 203.69 258.714 204.443C258.236 204.82 257.859 205.109 257.601 205.303C257.472 205.4 257.373 205.473 257.306 205.522L257.231 205.577L257.213 205.591L257.208 205.594L257.207 205.595L257.207 205.595Z" stroke="url(#paint3_linear_16_12)" shape-rendering="crispEdges"/>
</g>
<g filter="url(#filter2_bd_16_12)">
<path d="M219 190C211.5 199.5 202.5 206 202.5 206C202.5 206 193.5 213 182.5 218C195.5 243.5 245 343.5 245 343.5C245 343.5 249.938 356.663 234 356.663C148.442 356.663 82.7028 356.797 42 356.663C30.5764 356.625 24 356.601 24 356.601V335.101V20.6013C24 20.6013 45.5884 20.163 83.5 20.1629C148 18.6629 186.5 27.4592 208 49.1629C235 73.9592 240.5 97 239 131.5C237.735 155.287 230.5 175.5 219 190Z" fill="url(#paint4_linear_16_12)" shape-rendering="crispEdges"/>
<path d="M202.207 205.595L202.2 205.6L202.193 205.605L202.193 205.605L202.192 205.606L202.187 205.61L202.168 205.624L202.092 205.683C202.025 205.734 201.924 205.811 201.791 205.911C201.526 206.11 201.134 206.401 200.629 206.767C199.619 207.497 198.156 208.524 196.351 209.707C192.739 212.073 187.762 215.059 182.293 217.545L181.817 217.761L182.055 218.227C188.553 230.974 204.177 262.346 218.177 290.535C225.177 304.629 231.771 317.925 236.615 327.699C239.036 332.585 241.021 336.591 242.4 339.375L243.993 342.593L244.41 343.434L244.516 343.649L244.54 343.697L244.543 343.705C244.55 343.727 244.562 343.761 244.577 343.807C244.608 343.897 244.651 344.032 244.701 344.204C244.8 344.55 244.927 345.046 245.03 345.642C245.237 346.839 245.348 348.412 244.989 349.969C244.633 351.515 243.816 353.044 242.157 354.195C240.489 355.353 237.92 356.163 234 356.163C202.571 356.163 173.817 356.181 147.995 356.197C103.523 356.225 67.7522 356.247 42.0016 356.163C36.2899 356.144 31.7899 356.129 28.7179 356.118L25.2078 356.106L24.5 356.103V335.101V21.0918C24.6404 21.0891 24.8107 21.086 25.0107 21.0824C25.6747 21.0704 26.6657 21.0533 27.9734 21.0328C30.5889 20.9917 34.4714 20.9369 39.5386 20.8821C49.6729 20.7725 64.5461 20.6629 83.5 20.6629V20.663L83.5116 20.6628C148.007 19.1628 186.306 27.9742 207.645 49.5148L207.653 49.5232L207.662 49.5311C221.114 61.8858 229.185 73.778 233.715 86.8562C238.247 99.9417 239.249 114.254 238.501 131.475C237.239 155.179 230.032 175.286 218.608 189.689L218.608 189.69C214.882 194.409 210.78 198.388 207.607 201.188C206.021 202.587 204.669 203.69 203.714 204.443C203.236 204.82 202.859 205.109 202.601 205.303C202.472 205.4 202.373 205.473 202.306 205.522L202.231 205.577L202.213 205.591L202.208 205.594L202.207 205.595L202.207 205.595Z" stroke="url(#paint5_linear_16_12)" shape-rendering="crispEdges"/>
</g>
<defs>
<filter id="filter0_bd_16_12" x="-16" y="-20" width="301.723" height="416.722" filterUnits="userSpaceOnUse" color-interpolation-filters="sRGB">
<feFlood flood-opacity="0" result="BackgroundImageFix"/>
<feGaussianBlur in="BackgroundImageFix" stdDeviation="20"/>
<feComposite in2="SourceAlpha" operator="in" result="effect1_backgroundBlur_16_12"/>
<feColorMatrix in="SourceAlpha" type="matrix" values="0 0 0 0 0 0 0 0 0 0 0 0 0 0 0 0 0 0 127 0" result="hardAlpha"/>
<feOffset dy="4"/>
<feGaussianBlur stdDeviation="12"/>
<feComposite in2="hardAlpha" operator="out"/>
<feColorMatrix type="matrix" values="0 0 0 0 0 0 0 0 0 0 0 0 0 0 0 0 0 0 0.2 0"/>
<feBlend mode="normal" in2="effect1_backgroundBlur_16_12" result="effect2_dropShadow_16_12"/>
<feBlend mode="normal" in="SourceGraphic" in2="effect2_dropShadow_16_12" result="shape"/>
</filter>
<filter id="filter1_bd_16_12" x="39" y="-20" width="301.723" height="416.722" filterUnits="userSpaceOnUse" color-interpolation-filters="sRGB">
<feFlood flood-opacity="0" result="BackgroundImageFix"/>
<feGaussianBlur in="BackgroundImageFix" stdDeviation="20"/>
<feComposite in2="SourceAlpha" operator="in" result="effect1_backgroundBlur_16_12"/>
<feColorMatrix in="SourceAlpha" type="matrix" values="0 0 0 0 0 0 0 0 0 0 0 0 0 0 0 0 0 0 127 0" result="hardAlpha"/>
<feOffset dy="4"/>
<feGaussianBlur stdDeviation="12"/>
<feComposite in2="hardAlpha" operator="out"/>
<feColorMatrix type="matrix" values="0 0 0 0 0 0 0 0 0 0 0 0 0 0 0 0 0 0 0.2 0"/>
<feBlend mode="normal" in2="effect1_backgroundBlur_16_12" result="effect2_dropShadow_16_12"/>
<feBlend mode="normal" in="SourceGraphic" in2="effect2_dropShadow_16_12" result="shape"/>
</filter>
<filter id="filter2_bd_16_12" x="-16" y="-20" width="301.723" height="416.722" filterUnits="userSpaceOnUse" color-interpolation-filters="sRGB">
<feFlood flood-opacity="0" result="BackgroundImageFix"/>
<feGaussianBlur in="BackgroundImageFix" stdDeviation="20"/>
<feComposite in2="SourceAlpha" operator="in" result="effect1_backgroundBlur_16_12"/>
<feColorMatrix in="SourceAlpha" type="matrix" values="0 0 0 0 0 0 0 0 0 0 0 0 0 0 0 0 0 0 127 0" result="hardAlpha"/>
<feOffset dy="4"/>
<feGaussianBlur stdDeviation="12"/>
<feComposite in2="hardAlpha" operator="out"/>
<feColorMatrix type="matrix" values="0 0 0 0 0 0 0 0 0 0 0 0 0 0 0 0 0 0 0.2 0"/>
<feBlend mode="normal" in2="effect1_backgroundBlur_16_12" result="effect2_dropShadow_16_12"/>
<feBlend mode="normal" in="SourceGraphic" in2="effect2_dropShadow_16_12" result="shape"/>
</filter>
<linearGradient id="paint0_linear_16_12" x1="155" y1="20.163" x2="-12.5001" y2="356.163" gradientUnits="userSpaceOnUse">
<stop stop-color="#36723E" stop-opacity="0.4"/>
<stop offset="1" stop-color="#36723E" stop-opacity="0.9"/>
</linearGradient>
<linearGradient id="paint1_linear_16_12" x1="117" y1="64" x2="122.5" y2="318.5" gradientUnits="userSpaceOnUse">
<stop stop-color="#36723E" stop-opacity="0.2"/>
<stop offset="1" stop-color="#36723E" stop-opacity="0.3"/>
</linearGradient>
<linearGradient id="paint2_linear_16_12" x1="210" y1="20.163" x2="42.4999" y2="356.163" gradientUnits="userSpaceOnUse">
<stop stop-color="#86A54F" stop-opacity="0.4"/>
<stop offset="1" stop-color="#86A54F" stop-opacity="0.9"/>
</linearGradient>
<linearGradient id="paint3_linear_16_12" x1="172" y1="64" x2="177.5" y2="318.5" gradientUnits="userSpaceOnUse">
<stop stop-color="#86A54F" stop-opacity="0.2"/>
<stop offset="1" stop-color="#86A54F" stop-opacity="0.3"/>
</linearGradient>
<linearGradient id="paint4_linear_16_12" x1="155" y1="20.163" x2="-12.5001" y2="356.163" gradientUnits="userSpaceOnUse">
<stop stop-color="#36723E" stop-opacity="0.4"/>
<stop offset="1" stop-color="#36723E" stop-opacity="0.9"/>
</linearGradient>
<linearGradient id="paint5_linear_16_12" x1="117" y1="64" x2="122.5" y2="318.5" gradientUnits="userSpaceOnUse">
<stop stop-color="#36723E" stop-opacity="0.2"/>
<stop offset="1" stop-color="#36723E" stop-opacity="0.137255"/>
</linearGradient>
</defs>
</svg>
