<svg width="82" height="82" viewBox="0 0 82 82" fill="none" xmlns="http://www.w3.org/2000/svg">
<path d="M41 41C46.6609 41 51.25 36.4109 51.25 30.75C51.25 25.0891 46.6609 20.5 41 20.5C35.3391 20.5 30.75 25.0891 30.75 30.75C30.75 36.4109 35.3391 41 41 41Z" stroke="#36723E" stroke-width="7"/>
<path d="M41 75.1668C59.8698 75.1668 75.1667 59.8699 75.1667 41.0002C75.1667 22.1304 59.8698 6.8335 41 6.8335C22.1303 6.8335 6.83337 22.1304 6.83337 41.0002C6.83337 59.8699 22.1303 75.1668 41 75.1668Z" stroke="#36723E" stroke-width="7"/>
<path d="M61.3944 68.3333C60.8508 58.454 57.8261 51.25 40.9997 51.25C24.1736 51.25 21.1489 58.454 20.6051 68.3333" stroke="#36723E" stroke-width="7" stroke-linecap="round"/>
</svg>
