<svg width="278" height="71" viewBox="0 0 278 71" fill="none" xmlns="http://www.w3.org/2000/svg">
<path d="M42.2629 1.78902L30.6799 38.617H30.3829L27.3139 26.836L18.4039 0.700012H0.484863V3.37301L24.8389 70.693H34.6399L45.7279 37.33H46.0249L57.1129 70.693H67.3099L91.3669 3.37301V0.700012H73.7449L64.9339 26.836L61.8649 38.617H61.5679L49.7869 1.78902C47.0149 1.78902 45.0349 1.78902 42.2629 1.78902Z" fill="#ECAE3B"/>
<path d="M277.999 0.700012C271.96 0.700012 265.921 0.700012 259.882 0.700012V25.846H238.498V0.700012C232.459 0.700012 226.321 0.700012 220.381 0.700012V70C226.321 70 232.459 70 238.498 70V42.181H259.882V70C265.921 70 271.96 70 277.999 70V0.700012Z" fill="#ECAE3B"/>
<path d="M134.154 62C132.296 61.9527 128.615 62 121 62C129.654 42.7389 143.154 16.9427 147.308 8H148.692L175 62H134.154Z" stroke="#ECAE3B" stroke-width="16"/>
</svg>
