<svg width="213" height="295" viewBox="0 0 213 295" fill="none" xmlns="http://www.w3.org/2000/svg">
<path d="M133.432 32.465C126.632 22.465 120.632 13.265 115.032 4.865C114.232 3.665 113.032 2.465 111.832 1.665C107.032 -1.535 100.632 0.0649967 97.432 4.865C92.232 13.265 86.232 22.065 79.032 32.465C47.432 78.865 0.231995 148.865 0.231995 188.865C0.231995 218.065 12.232 244.465 31.432 263.665C50.632 282.465 77.032 294.465 106.232 294.465C135.432 294.465 161.832 282.465 181.032 263.265C200.232 244.065 212.232 217.665 212.232 188.465C212.232 148.465 165.032 78.865 133.432 32.465ZM166.632 248.865C151.032 264.465 129.832 273.665 106.232 273.665C82.632 273.665 61.432 264.065 45.832 248.865C30.232 233.265 21.032 212.065 21.032 188.465C21.032 154.865 66.232 88.065 96.232 43.665C99.832 38.465 103.032 33.265 106.232 28.865C109.432 33.265 112.632 38.465 116.232 43.665C146.232 88.465 191.432 154.865 191.432 188.465C191.432 212.065 181.832 233.265 166.632 248.865Z" fill="#36723E"/>
<path d="M168.232 181.265C162.632 180.865 157.832 185.265 157.432 190.865C157.032 199.665 154.232 208.065 149.832 215.265C145.432 222.465 139.032 228.865 131.432 232.865C126.632 235.665 124.632 242.065 127.432 246.865C130.632 252.465 137.032 254.065 141.832 251.265C152.632 245.265 161.432 236.465 167.432 226.465C173.832 216.465 177.432 204.465 177.832 192.065C178.232 186.465 173.832 181.665 168.232 181.265Z" fill="#36723E"/>
</svg>
