<svg width="373" height="87" viewBox="0 0 373 87" fill="none" xmlns="http://www.w3.org/2000/svg">
<path d="M69.84 1.72002C62.52 1.72002 55.2 1.72002 47.88 1.72002V32.2H21.96V1.72002C14.64 1.72002 7.2 1.72002 0 1.72002V85.72C7.2 85.72 14.64 85.72 21.96 85.72V52H47.88V85.72C55.2 85.72 62.52 85.72 69.84 85.72V1.72002Z" fill="#ECAE3B"/>
<path d="M123.806 67.6C117.566 67.6 110.966 64.24 110.966 57.4V1.72002C104.246 1.72002 97.1663 1.72002 90.4463 1.72002V57.76C90.4463 76.24 106.646 86.92 123.806 86.92C141.086 86.92 157.286 76.24 157.286 57.76V1.72002C150.566 1.72002 143.366 1.72002 136.526 1.72002V57.4C136.526 64.24 130.046 67.6 123.806 67.6Z" fill="#ECAE3B"/>
<path d="M202.848 66.88V20.44H212.688C212.688 13.24 212.688 8.80002 212.688 1.72002C199.008 1.72002 185.448 1.72002 171.768 1.72002C171.768 8.80002 171.768 13.24 171.768 20.44H181.608V66.88H170.928C170.928 73.96 170.928 78.4 170.928 85.72C185.208 85.72 199.248 85.72 213.528 85.72C213.528 78.4 213.528 73.96 213.528 66.88H202.848Z" fill="#ECAE3B"/>
<path d="M249.055 1.72002C241.735 1.72002 234.655 1.72002 227.455 1.72002V85.72C244.495 85.72 262.255 85.72 279.535 85.72C279.535 78.52 279.535 73.6 279.535 66.4H249.055C249.055 30.64 249.055 45.16 249.055 1.72002Z" fill="#ECAE3B"/>
<path d="M351.405 85.72H372.405V82.6L334.485 0.640015H325.245L287.445 82.6V85.72H308.445L313.365 75.16H346.485L351.405 85.72ZM339.405 56.68H320.445L329.805 34.6L339.405 56.68Z" fill="#ECAE3B"/>
</svg>
