<svg width="32" height="45" viewBox="0 0 32 45" fill="none" xmlns="http://www.w3.org/2000/svg">
<path d="M16 0C7.17755 0 0 7.17755 0 15.9999C0 26.9487 14.3184 43.0222 14.9281 43.7012C15.5007 44.3389 16.5004 44.3378 17.0719 43.7012C17.6816 43.0222 32 26.9487 32 15.9999C31.9998 7.17755 24.8224 0 16 0ZM16 24.0499C11.5612 24.0499 7.95008 20.4387 7.95008 15.9999C7.95008 11.5611 11.5613 7.94999 16 7.94999C20.4387 7.94999 24.0498 11.5612 24.0498 16C24.0498 20.4388 20.4387 24.0499 16 24.0499Z" fill="#ECAE3B"/>
</svg>
