<svg width="309" height="309" viewBox="0 0 309 309" fill="none" xmlns="http://www.w3.org/2000/svg">
<path d="M154.5 0.00585938C69.1809 0.00585938 0 69.1732 0 154.499C0 239.825 69.1741 308.992 154.5 308.992C239.833 308.992 309 239.825 309 154.499C309 69.1732 239.833 0.00585938 154.5 0.00585938ZM154.5 46.2011C182.732 46.2011 205.609 69.085 205.609 97.303C205.609 125.528 182.732 148.405 154.5 148.405C126.282 148.405 103.405 125.528 103.405 97.303C103.405 69.085 126.282 46.2011 154.5 46.2011ZM154.466 268.599C126.309 268.599 100.521 258.345 80.6296 241.372C75.7841 237.239 72.9881 231.179 72.9881 224.82C72.9881 196.202 96.1502 173.298 124.775 173.298H184.238C212.87 173.298 235.944 196.202 235.944 224.82C235.944 231.186 233.162 237.233 228.309 241.365C208.425 258.345 182.63 268.599 154.466 268.599Z" fill="#ECAE3B"/>
</svg>
