<svg width="481" height="481" viewBox="0 0 481 481" fill="none" xmlns="http://www.w3.org/2000/svg">
<circle cx="240.5" cy="240.5" r="240.5" fill="#8FB794" fill-opacity="0.29"/>
<g clip-path="url(#clip0)">
<path d="M240.5 195.637C215.75 195.637 195.637 215.75 195.637 240.5C195.637 265.25 215.75 285.364 240.5 285.364C265.25 285.364 285.364 265.25 285.364 240.5C285.364 215.75 265.25 195.637 240.5 195.637Z" fill="#36723E"/>
<path d="M240.5 128.341C165.727 128.341 101.872 174.849 76 240.5C101.872 306.151 165.727 352.66 240.5 352.66C315.348 352.66 379.129 306.151 405.001 240.5C379.129 174.849 315.348 128.341 240.5 128.341ZM240.5 315.273C199.226 315.273 165.727 281.774 165.727 240.5C165.727 199.225 199.226 165.727 240.5 165.727C281.775 165.727 315.273 199.226 315.273 240.5C315.273 281.775 281.775 315.273 240.5 315.273Z" fill="#36723E"/>
</g>
<defs>
<clipPath id="clip0">
<rect width="329" height="329" fill="white" transform="translate(76 76)"/>
</clipPath>
</defs>
</svg>
