<svg width="301" height="58" viewBox="0 0 301 58" fill="none" xmlns="http://www.w3.org/2000/svg">
<path d="M34.16 1.6L24.8 31.36H24.56L22.08 21.84L14.88 0.72H0.400024V2.88L20.08 57.28H28L36.96 30.32H37.2L46.16 57.28H54.4L73.84 2.88V0.72H59.6L52.48 21.84L50 31.36H49.76L40.24 1.6C38 1.6 36.4 1.6 34.16 1.6Z" fill="#ECAE3B"/>
<path d="M117.218 0.72C104.098 0.72 95.2175 0.72 82.2575 0.72C82.2575 19.28 82.2575 38 82.2575 56.72C95.2175 56.72 104.818 56.72 117.938 56.72C117.938 52.48 117.938 48.16 117.938 44C109.538 44 104.738 44 96.4975 44C96.4975 40.64 96.4975 37.44 96.4975 34.16H115.538C115.538 29.92 115.538 25.68 115.538 21.44H96.4975V13.52C104.738 13.52 108.898 13.52 117.218 13.52C117.218 9.2 117.218 4.88 117.218 0.72Z" fill="#ECAE3B"/>
<path d="M187.858 56.72H201.858V54.64L176.578 0H170.418L145.218 54.64V56.72H159.218L162.498 49.68H184.578L187.858 56.72ZM179.858 37.36H167.218L173.458 22.64L179.858 37.36Z" fill="#ECAE3B"/>
<path d="M245.531 36.88C259.691 27.28 255.691 0.799999 233.691 0.72C225.531 0.72 217.211 0.72 209.131 0.72C209.131 19.44 209.131 38.08 209.131 56.72C213.771 56.72 218.651 56.72 223.451 56.72V40.24H230.891L240.491 56.72H256.491V54.64L245.531 36.88ZM233.691 27.36H223.451C223.451 22.88 223.451 18.08 223.451 13.52C226.811 13.52 230.331 13.44 233.691 13.52C241.851 13.6 241.451 27.36 233.691 27.36Z" fill="#ECAE3B"/>
<path d="M300.108 0.72C286.988 0.72 278.108 0.72 265.148 0.72C265.148 19.28 265.148 38 265.148 56.72C278.108 56.72 287.708 56.72 300.828 56.72C300.828 52.48 300.828 48.16 300.828 44C292.428 44 287.628 44 279.388 44C279.388 40.64 279.388 37.44 279.388 34.16H298.428C298.428 29.92 298.428 25.68 298.428 21.44H279.388V13.52C287.628 13.52 291.788 13.52 300.108 13.52C300.108 9.2 300.108 4.88 300.108 0.72Z" fill="#ECAE3B"/>
</svg>
