<svg width="183" height="281" viewBox="0 0 183 281" fill="none" xmlns="http://www.w3.org/2000/svg">
<path d="M114.038 197.189C113.048 193.89 111.728 190.59 110.078 187.29C108.428 183.991 106.118 181.351 103.809 178.711C101.169 176.071 98.5292 173.762 95.5596 171.782L92.5899 169.802V166.503V123.277C92.5899 115.028 87.9704 107.769 80.0513 104.799C77.7415 103.809 75.1018 103.149 72.4621 103.149C69.8224 103.149 67.1827 103.809 64.8729 104.799C57.2837 108.099 52.3343 115.028 52.3343 123.277V166.503V169.802L49.3646 171.782C46.3949 173.762 43.4253 176.071 41.1155 178.711C38.4758 181.351 36.496 184.321 34.8462 187.29C33.1964 190.26 31.8765 193.89 30.8866 197.189C29.8967 200.489 29.5668 204.118 29.5668 207.748C29.5668 213.357 30.8866 218.967 32.8664 224.246C35.1762 229.526 38.1458 234.145 42.1054 238.105C46.065 242.064 50.6845 245.364 55.9639 247.344C60.9133 249.323 66.5227 250.643 72.4621 250.643C78.0715 250.643 83.6809 249.323 88.9603 247.344C94.2397 245.034 98.8592 242.064 102.819 238.105C106.778 234.145 110.078 229.526 112.058 224.246C114.038 219.297 115.357 213.687 115.357 207.748C115.357 204.118 115.027 200.489 114.038 197.189ZM96.2195 217.977C94.8996 220.947 92.9198 223.916 90.6101 226.226C88.3004 228.536 85.3307 230.516 82.361 231.835C79.3913 233.155 76.0917 233.815 72.4621 233.815C68.8325 233.815 65.5328 233.155 62.5632 231.835C59.5935 230.516 56.6238 228.536 54.3141 226.226C52.0043 223.916 50.0245 220.947 48.7047 217.977C47.3848 215.007 46.7249 211.708 46.7249 208.078C46.7249 205.768 47.0549 203.458 47.3848 201.479C48.0448 199.169 48.7047 197.189 49.6946 195.539C50.6845 193.56 52.0043 191.91 53.6541 190.26C54.974 188.61 56.9538 187.29 58.6036 185.97L65.5328 181.681L69.4924 179.041V174.422V166.173V123.277C69.4924 122.947 69.4924 122.617 69.8224 122.287C69.8224 121.957 70.1523 121.627 70.4823 121.297L70.8123 120.967C71.1422 120.967 71.1422 120.638 71.4722 120.638C71.8022 120.638 72.1321 120.308 72.792 120.308C73.122 120.308 73.7819 120.308 74.1119 120.638C74.4419 120.638 74.4419 120.967 74.7718 120.967L75.1018 121.297C75.4318 121.627 75.7617 121.957 75.7617 122.287C75.7617 122.617 76.0917 122.947 76.0917 123.277V166.503V174.752V179.371L80.0513 182.011L86.9805 186.3C88.9603 187.62 90.6101 188.94 91.93 190.59C93.5798 192.24 94.5697 193.89 95.8895 195.869C96.8794 197.849 97.5393 199.829 98.1993 201.809C98.8592 203.788 98.8592 206.098 98.8592 208.408C98.1993 211.708 97.5393 215.007 96.2195 217.977Z" fill="#36723E"/>
<path d="M161.222 39.4664H136.145C131.526 39.7963 127.566 43.426 127.566 48.0454C127.566 52.6649 131.196 56.6245 136.145 56.6245H161.222C165.842 56.6245 169.801 52.9949 169.801 48.0454C169.801 43.426 166.172 39.4664 161.222 39.4664Z" fill="#36723E"/>
<path d="M161.222 97.87H136.145C131.526 97.87 127.566 101.5 127.566 106.449C127.566 111.069 131.526 115.028 136.145 115.028H161.222C165.842 115.028 169.801 111.399 169.801 106.449C169.801 101.83 166.172 97.87 161.222 97.87Z" fill="#36723E"/>
<path d="M174.421 127.237H136.145C131.526 127.237 127.566 130.866 127.566 135.816C127.566 140.435 131.196 144.395 136.145 144.395H174.421C179.04 144.395 183 140.765 183 135.816C182.67 130.866 179.04 127.237 174.421 127.237Z" fill="#36723E"/>
<path d="M143.074 190.59C141.095 183.991 138.785 178.381 135.815 173.102C133.835 169.142 131.196 165.513 128.226 161.883C126.246 159.573 123.937 157.264 121.957 154.954V50.0252C121.957 43.426 120.637 36.8267 118.327 31.2173C110.408 12.4093 92.9199 0.53064 72.4621 0.53064C52.0044 0.53064 34.5163 12.4093 26.5971 31.2173C24.2874 37.1566 22.9675 43.426 22.9675 50.0252V155.284C20.6578 157.264 18.678 159.573 16.6982 162.213C13.7285 165.843 11.4188 169.472 9.10904 173.432C6.13936 178.711 3.82962 184.321 2.50976 190.26C0.85994 196.199 0.200012 202.139 0.200012 208.408C0.200012 218.307 2.1798 227.546 5.8094 236.125C9.439 245.034 15.0484 252.953 21.6477 259.552C28.2469 266.152 36.1661 271.431 45.0751 275.391C53.6542 279.02 62.8932 281 72.7921 281C92.9199 281 111.068 272.751 123.937 259.882C130.536 253.283 135.815 245.364 139.775 236.455C143.404 227.876 145.384 218.637 145.384 208.738C145.384 202.469 144.724 196.529 143.074 190.59ZM123.607 229.196C120.967 235.795 116.677 242.064 111.398 247.344C101.499 257.243 87.3105 263.512 72.1322 263.512C64.543 263.512 57.2838 261.862 51.0145 259.222C44.4152 256.583 38.1459 252.293 32.8664 247.014C27.587 241.734 23.6275 235.795 20.6578 228.866C18.0181 222.266 16.3682 215.007 16.3682 207.748C16.3682 202.799 17.0282 198.179 18.0181 193.89C19.008 189.27 20.9877 184.98 23.2975 181.021C24.9473 178.051 26.9271 175.082 28.9069 172.442C31.2166 169.802 33.5264 167.492 36.1661 165.183L39.1358 162.543V158.583V50.0252C39.1358 45.7357 40.1256 41.4462 41.4455 37.4866C43.0953 33.857 45.0751 30.5574 47.7148 27.5877L48.3747 26.9278C51.3444 23.9581 54.974 21.3184 58.9336 19.6685C62.8932 18.0187 66.8527 17.3588 71.4722 17.3588C75.7618 17.3588 80.0513 18.3487 84.0109 19.6685C87.9704 21.3184 91.6 23.6281 94.5697 26.9278L95.2296 27.5877C97.8693 30.5574 100.179 33.857 101.499 37.4866C103.149 41.4462 103.809 45.4057 103.809 50.0252V159.243V163.203L106.778 165.843C109.418 168.152 111.728 170.462 114.038 173.102C116.017 175.741 117.997 178.711 119.647 181.681C121.957 185.64 123.607 190.26 124.926 194.549C125.916 198.839 126.576 203.458 126.576 208.408C127.896 215.667 126.246 222.926 123.607 229.196Z" fill="#36723E"/>
<path d="M174.421 68.8332H136.145C131.526 68.8332 127.566 72.4628 127.566 77.4122C127.566 82.0317 131.196 85.9913 136.145 85.9913H174.421C179.04 85.9913 183 82.3617 183 77.4122C182.67 72.4628 179.04 68.8332 174.421 68.8332Z" fill="#36723E"/>
</svg>
