<svg width="82" height="82" viewBox="0 0 82 82" fill="none" xmlns="http://www.w3.org/2000/svg">
<path fill-rule="evenodd" clip-rule="evenodd" d="M3.41667 3.4165C1.52969 3.4165 0 4.94621 0 6.83317C0 8.72013 1.52969 10.2498 3.41667 10.2498H10.9554L20.4495 50.9386C21.8627 56.9953 27.1791 61.3167 33.3628 61.494V61.4998H60.0903C66.7487 61.4998 72.4381 56.7015 73.5612 50.1384L77.8511 25.0691C78.5652 20.8952 75.3501 17.0832 71.1155 17.0832H19.5668L16.994 6.0568C16.6332 4.51045 15.2546 3.4165 13.6667 3.4165H3.41667ZM21.1612 23.9165L27.1041 49.386C27.8257 52.4785 30.5829 54.6665 33.7586 54.6665H60.0903C63.4195 54.6665 66.2642 52.2673 66.8259 48.9856L71.1155 23.9165H21.1612Z" fill="white"/>
<path d="M27.3333 78.5832C31.1073 78.5832 34.1667 75.5239 34.1667 71.7498C34.1667 67.9758 31.1073 64.9165 27.3333 64.9165C23.5594 64.9165 20.5 67.9758 20.5 71.7498C20.5 75.5239 23.5594 78.5832 27.3333 78.5832Z" fill="white"/>
<path d="M64.9167 78.5832C68.6907 78.5832 71.75 75.5239 71.75 71.7498C71.75 67.9758 68.6907 64.9165 64.9167 64.9165C61.1426 64.9165 58.0833 67.9758 58.0833 71.7498C58.0833 75.5239 61.1426 78.5832 64.9167 78.5832Z" fill="white"/>
</svg>
