<svg width="800" height="800" viewBox="0 0 800 800" fill="none" xmlns="http://www.w3.org/2000/svg">
<g filter="url(#filter0_d_35_259)">
<path d="M233.333 334.293C249.047 333.333 268.419 333.333 293.333 333.333H506.666C531.58 333.333 550.953 333.333 566.666 334.293M233.333 334.293C213.722 335.49 199.809 338.183 187.934 344.233C169.118 353.82 153.82 369.117 144.232 387.933C133.333 409.327 133.333 437.327 133.333 493.333V540C133.333 596.007 133.333 624.007 144.232 645.4C153.82 664.217 169.118 679.513 187.934 689.1C209.325 700 237.328 700 293.333 700H506.666C562.673 700 590.673 700 612.066 689.1C630.883 679.513 646.18 664.217 655.766 645.4C666.666 624.007 666.666 596.007 666.666 540V493.333C666.666 437.327 666.666 409.327 655.766 387.933C646.18 369.117 630.883 353.82 612.066 344.233C600.19 338.183 586.276 335.49 566.666 334.293M233.333 334.293V266.667C233.333 174.619 307.952 100 400 100C492.046 100 566.666 174.619 566.666 266.667V334.293" stroke="#EEC428" stroke-width="66.6667" stroke-linecap="round" stroke-linejoin="round"/>
</g>
<defs>
<filter id="filter0_d_35_259" x="-4" y="0" width="808" height="808" filterUnits="userSpaceOnUse" color-interpolation-filters="sRGB">
<feFlood flood-opacity="0" result="BackgroundImageFix"/>
<feColorMatrix in="SourceAlpha" type="matrix" values="0 0 0 0 0 0 0 0 0 0 0 0 0 0 0 0 0 0 127 0" result="hardAlpha"/>
<feOffset dy="4"/>
<feGaussianBlur stdDeviation="2"/>
<feComposite in2="hardAlpha" operator="out"/>
<feColorMatrix type="matrix" values="0 0 0 0 0 0 0 0 0 0 0 0 0 0 0 0 0 0 0.25 0"/>
<feBlend mode="normal" in2="BackgroundImageFix" result="effect1_dropShadow_35_259"/>
<feBlend mode="normal" in="SourceGraphic" in2="effect1_dropShadow_35_259" result="shape"/>
</filter>
</defs>
</svg>
